<svg xmlns="http://www.w3.org/2000/svg" xmlns:xlink="http://www.w3.org/1999/xlink" width="1000" zoomAndPan="magnify" viewBox="0 0 750 749.999995" height="1000" preserveAspectRatio="xMidYMid meet" version="1.0"><defs><clipPath id="1161ac417f"><path d="M 4 0 L 746.25 0 L 746.25 750 L 4 750 Z M 4 0 " clip-rule="nonzero"/></clipPath></defs><g clip-path="url(#1161ac417f)"><path fill="#2563eb" d="M 242.644531 253.988281 C 286.492188 267.738281 330.6875 274.609375 374.9375 274.609375 C 419.175781 274.609375 463.472656 267.734375 507.496094 253.992188 C 512.394531 252.464844 515.730469 247.929688 515.730469 242.796875 L 515.730469 144.3125 L 619.644531 107.574219 C 624.335938 105.917969 627.46875 101.484375 627.464844 96.511719 C 627.460938 91.535156 624.324219 87.105469 619.632812 85.453125 L 378.976562 0.667969 C 376.453125 -0.222656 373.703125 -0.222656 371.179688 0.667969 L 130.5625 85.453125 C 125.875 87.105469 122.734375 91.539062 122.730469 96.511719 C 122.726562 101.484375 125.863281 105.917969 130.550781 107.578125 L 171.3125 121.988281 L 171.3125 165.085938 C 160.652344 169.65625 153.164062 180.246094 153.164062 192.554688 L 153.164062 217.386719 C 153.164062 223.863281 158.417969 229.117188 164.894531 229.117188 L 201.226562 229.117188 C 207.707031 229.117188 212.957031 223.863281 212.957031 217.386719 L 212.957031 192.554688 C 212.957031 180.238281 205.453125 169.644531 194.769531 165.078125 L 194.769531 130.28125 L 234.421875 144.300781 L 234.421875 242.792969 C 234.425781 247.921875 237.753906 252.453125 242.644531 253.988281 Z M 492.273438 234.085938 C 414.300781 256.808594 335.539062 256.816406 257.882812 234.09375 L 257.882812 152.597656 L 371.167969 192.652344 C 372.433594 193.101562 373.753906 193.324219 375.078125 193.324219 C 376.402344 193.324219 377.722656 193.101562 378.988281 192.652344 L 492.273438 152.605469 Z M 96.050781 390.148438 L 93.539062 291.246094 C 93.238281 279.339844 88.300781 268.242188 79.632812 260 C 70.960938 251.753906 59.621094 247.347656 47.71875 247.679688 C 23.054688 248.300781 3.492188 268.875 4.109375 293.542969 L 9.632812 512.070312 C 10.296875 538.445312 20.558594 560.824219 40.148438 578.605469 L 72.476562 607.820312 C 87.117188 621.105469 94.792969 637.839844 95.289062 657.570312 L 95.347656 659.84375 L 80.984375 659.859375 C 69.773438 659.859375 60.660156 668.992188 60.660156 680.234375 L 60.699219 729.675781 C 60.699219 740.882812 69.835938 750 81.078125 750 L 274.234375 749.792969 C 285.4375 749.785156 294.546875 740.671875 294.546875 729.460938 L 294.507812 679.976562 C 294.507812 668.769531 285.371094 659.648438 274.128906 659.648438 L 258.917969 659.664062 L 256.636719 570.355469 C 255.761719 535.121094 242.070312 505.285156 215.953125 481.691406 C 201.214844 468.339844 186.472656 455.003906 171.730469 441.660156 C 156.992188 428.324219 142.253906 414.988281 127.507812 401.632812 C 118.578125 393.558594 107.242188 389.78125 96.050781 390.148438 Z M 111.765625 419.027344 C 126.507812 432.378906 141.246094 445.71875 155.988281 459.058594 C 170.726562 472.394531 185.464844 485.734375 200.21875 499.089844 C 221.382812 518.210938 232.476562 542.386719 233.183594 570.949219 L 235.449219 659.691406 L 118.820312 659.816406 L 118.746094 656.964844 C 118.078125 630.589844 107.816406 608.210938 88.226562 590.429688 L 55.902344 561.214844 C 41.261719 547.929688 33.585938 531.195312 33.085938 511.476562 L 27.566406 292.949219 C 27.269531 281.214844 36.578125 271.425781 48.3125 271.128906 C 53.953125 271.011719 59.339844 273.070312 63.46875 276.996094 C 67.597656 280.921875 69.949219 286.191406 70.089844 291.839844 L 72.773438 397.53125 C 69.726562 399.542969 66.878906 401.964844 64.3125 404.792969 C 47.785156 423.066406 49.195312 451.410156 67.472656 467.988281 C 92.503906 490.613281 117.535156 513.238281 142.527344 535.90625 C 147.328125 540.257812 154.746094 539.894531 159.097656 535.097656 C 163.449219 530.300781 163.085938 522.878906 158.289062 518.527344 C 133.285156 495.855469 108.246094 473.21875 83.21875 450.601562 C 74.527344 442.714844 73.851562 429.222656 81.699219 420.542969 C 89.585938 411.847656 103.078125 411.171875 111.765625 419.027344 Z M 702.480469 247.679688 C 690.539062 247.363281 679.234375 251.75 670.554688 259.992188 C 661.867188 268.238281 656.917969 279.339844 656.617188 291.25 L 654.144531 390.128906 C 642.945312 389.757812 631.59375 393.546875 622.644531 401.640625 C 607.90625 414.988281 593.167969 428.328125 578.425781 441.664062 C 563.6875 455.003906 548.945312 468.34375 534.207031 481.691406 C 508.082031 505.332031 494.394531 535.160156 493.519531 570.355469 L 491.273438 659.667969 L 476.015625 659.652344 C 464.808594 659.652344 455.6875 668.769531 455.6875 679.964844 L 455.648438 729.367188 C 455.601562 734.785156 457.683594 739.894531 461.515625 743.761719 C 465.371094 747.648438 470.5 749.792969 475.960938 749.792969 L 669.132812 750 C 680.339844 750 689.457031 740.882812 689.457031 729.6875 L 689.496094 680.328125 C 689.542969 674.894531 687.453125 669.769531 683.605469 665.890625 C 679.75 662 674.625 659.859375 669.183594 659.859375 L 654.808594 659.84375 L 654.863281 657.558594 C 655.359375 637.832031 663.046875 621.101562 677.707031 607.828125 L 710.011719 578.597656 C 729.617188 560.84375 739.898438 538.460938 740.5625 512.066406 L 746.042969 293.539062 C 746.667969 268.871094 727.121094 248.300781 702.480469 247.679688 Z M 717.113281 511.476562 C 716.617188 531.199219 708.929688 547.933594 694.273438 561.203125 L 661.96875 590.4375 C 642.359375 608.1875 632.082031 630.570312 631.414062 656.988281 L 631.347656 659.816406 L 514.746094 659.691406 L 516.976562 570.9375 C 517.683594 542.417969 528.777344 518.242188 549.953125 499.078125 C 564.691406 485.734375 579.429688 472.394531 594.171875 459.058594 C 608.910156 445.714844 623.652344 432.378906 638.386719 419.03125 C 647.097656 411.15625 660.582031 411.824219 668.449219 420.523438 C 676.3125 429.21875 675.636719 442.710938 666.949219 450.589844 C 654.855469 461.539062 642.75 472.492188 630.636719 483.449219 C 617.71875 495.132812 604.800781 506.820312 591.878906 518.519531 C 587.078125 522.867188 586.707031 530.285156 591.058594 535.085938 C 595.40625 539.890625 602.824219 540.257812 607.625 535.910156 C 620.542969 524.214844 633.460938 512.527344 646.375 500.84375 C 658.488281 489.886719 670.59375 478.933594 682.703125 467.972656 C 700.960938 451.40625 702.371094 423.0625 685.847656 404.789062 C 683.292969 401.96875 680.460938 399.550781 677.425781 397.535156 L 680.070312 291.832031 C 680.210938 286.195312 682.566406 280.929688 686.707031 277 C 690.847656 273.070312 696.230469 270.996094 701.890625 271.125 C 713.601562 271.421875 722.890625 281.207031 722.597656 292.945312 Z M 106.238281 337.804688 C 102.074219 355.179688 112.800781 372.699219 130.125 376.851562 L 367.046875 434.171875 C 369.683594 434.847656 372.390625 435.183594 375.09375 435.183594 C 377.652344 435.183594 380.210938 434.882812 382.695312 434.277344 L 620.050781 376.859375 C 628.460938 374.84375 635.578125 369.667969 640.085938 362.28125 C 644.601562 354.890625 645.957031 346.183594 643.921875 337.8125 C 641.90625 329.382812 636.730469 322.246094 629.339844 317.730469 C 623.238281 314 616.234375 312.457031 609.238281 313.179688 L 609.238281 268.082031 C 609.238281 260.746094 605.785156 254.128906 599.859375 250.007812 C 593.871094 245.753906 586.472656 244.753906 579.589844 247.246094 L 375.078125 320.804688 L 170.644531 247.273438 C 163.730469 244.738281 156.316406 245.734375 150.394531 249.941406 C 144.398438 254.113281 140.960938 260.726562 140.960938 268.082031 L 140.960938 313.179688 C 133.96875 312.460938 126.96875 313.996094 120.867188 317.71875 C 113.480469 322.230469 108.289062 329.351562 106.238281 337.804688 Z M 386.808594 341.519531 L 585.78125 269.949219 L 585.78125 318.507812 L 386.808594 366.617188 Z M 164.421875 269.964844 L 363.347656 341.519531 L 363.347656 366.617188 L 164.421875 318.507812 Z M 164.421875 269.964844 " fill-opacity="1" fill-rule="nonzero"/></g></svg>